<svg width="13" height="13" viewBox="0 0 13 13" fill="none" xmlns="http://www.w3.org/2000/svg">
<g clip-path="url(#clip0_31_1887)">
<path d="M12.9855 5.13095L10.8253 4.34473L8.66419 5.13095L6.50399 4.34473L4.34287 5.13095L2.18266 4.34473L0.0224609 5.13095L0.0224609 7.8789L2.18266 8.6661L4.34287 7.8789L6.50399 8.6661L8.66419 7.8789L10.8253 8.6661L12.9855 7.8789V5.13095Z" fill="black"/>
<path d="M12.9855 0.809648L10.8253 0.0234375L8.66419 0.809648L6.50399 0.0234375L4.34287 0.809648L2.18266 0.0234375L0.0224609 0.809648L0.0224609 3.55857L2.18266 4.34478L4.34287 3.55857L6.50399 4.34478L8.66419 3.55857L10.8253 4.34478L12.9855 3.55857V0.809648Z" fill="#28BE46"/>
<path d="M4.34283 0.809648L2.18169 1.5968L0.0214844 0.809648L2.18169 0.0234375L4.34283 0.809648Z" fill="black"/>
<path d="M8.66319 0.809648L6.50299 1.5968L4.34277 0.809648L6.50299 0.0234375L8.66319 0.809648Z" fill="black"/>
<path d="M12.9844 0.809648L10.8242 1.5968L8.66309 0.809648L10.8242 0.0234375L12.9844 0.809648Z" fill="black"/>
<path d="M0.0214844 7.87897L2.18169 7.09277L4.34283 7.87897L2.18169 8.66612L0.0214844 7.87897Z" fill="#28BE46"/>
<path d="M8.66406 7.87897L10.8243 7.09277L12.9854 7.87897L10.8243 8.66612L8.66406 7.87897Z" fill="#28BE46"/>
<path d="M8.66319 5.13086L6.50299 5.91706L4.34277 5.13086V7.87886L6.50299 8.66601L8.66319 7.87886V5.13086Z" fill="#28BE46"/>
<path d="M12.9855 9.45227L10.8253 8.66602L8.66419 9.45227L6.50399 8.66602L4.34287 9.45227L2.18266 8.66602L0.0224609 9.45227L0.0224609 12.2002L2.18266 12.9864L4.34287 12.2002L6.50399 12.9864L8.66419 12.2002L10.8253 12.9864L12.9855 12.2002V9.45227Z" fill="black"/>
<path d="M0.0214844 12.2003L2.18169 11.4141L4.34283 12.2003L2.18169 12.9865L0.0214844 12.2003Z" fill="#28BE46"/>
<path d="M8.66406 12.2003L10.8243 11.4141L12.9854 12.2003L10.8243 12.9865L8.66406 12.2003Z" fill="#28BE46"/>
<path d="M8.66319 9.45215L6.50299 10.2383L4.34277 9.45215V12.2001L6.50299 12.9863L8.66319 12.2001V9.45215Z" fill="#28BE46"/>
</g>
<defs>
<clipPath id="clip0_31_1887">
<rect width="13" height="13" fill="white"/>
</clipPath>
</defs>
</svg>
